<?xml version="1.0" encoding="UTF-8" standalone="no"?>
<!-- Created with Inkscape (http://www.inkscape.org/) -->

<svg
   version="1.1"
   id="svg1"
   width="481.91254"
   height="311.17404"
   viewBox="0 0 481.91254 311.17404"
   sodipodi:docname="frog-soup-down.svg"
   inkscape:version="1.4 (86a8ad7, 2024-10-11)"
   xmlns:inkscape="http://www.inkscape.org/namespaces/inkscape"
   xmlns:sodipodi="http://sodipodi.sourceforge.net/DTD/sodipodi-0.dtd"
   xmlns:xlink="http://www.w3.org/1999/xlink"
   xmlns="http://www.w3.org/2000/svg"
   xmlns:svg="http://www.w3.org/2000/svg">
  <defs
     id="defs1">
    <inkscape:path-effect
       effect="mirror_symmetry"
       start_point="341.88786,100.39213"
       end_point="345.06984,100.39213"
       center_point="343.47885,100.39213"
       id="path-effect18"
       is_visible="true"
       lpeversion="1.2"
       lpesatellites=""
       mode="Y"
       discard_orig_path="false"
       fuse_paths="false"
       oposite_fuse="false"
       split_items="false"
       split_open="false"
       link_styles="false" />
    <inkscape:path-effect
       effect="mirror_symmetry"
       start_point="301.727,-79.35"
       end_point="301.727,542.71923"
       center_point="301.727,231.68462"
       id="path-effect17"
       is_visible="true"
       lpeversion="1.2"
       lpesatellites=""
       mode="free"
       discard_orig_path="false"
       fuse_paths="false"
       oposite_fuse="false"
       split_items="false"
       split_open="false"
       link_styles="false" />
    <inkscape:path-effect
       center_point="301.727,284.2756"
       end_point="301.727,430.8125"
       start_point="301.727,137.73871"
       effect="mirror_symmetry"
       id="path-effect36"
       is_visible="true"
       lpeversion="1.2"
       lpesatellites=""
       mode="free"
       discard_orig_path="false"
       fuse_paths="false"
       oposite_fuse="true"
       split_items="false"
       split_open="false"
       link_styles="false" />
  </defs>
  <sodipodi:namedview
     id="namedview1"
     pagecolor="#505050"
     bordercolor="#ffffff"
     borderopacity="1"
     inkscape:showpageshadow="0"
     inkscape:pageopacity="0"
     inkscape:pagecheckerboard="1"
     inkscape:deskcolor="#505050"
     inkscape:zoom="1.4142136"
     inkscape:cx="127.27922"
     inkscape:cy="193.39371"
     inkscape:window-width="1920"
     inkscape:window-height="1051"
     inkscape:window-x="-9"
     inkscape:window-y="-9"
     inkscape:window-maximized="1"
     inkscape:current-layer="frog-soup"
     showgrid="false"
     showguides="true" />
  <g
     id="frog-soup"
     transform="translate(3.7256914)">
    <path
       id="sauce-pan-background"
       style="fill:#ffffff"
       d="m 464.86523,95.363281 c -37.42837,0.0051 -81.33806,10.639509 -125.83203,30.218749 -8.75024,3.85046 -21.14564,9.13234 -27.37109,11.66602 -12.99573,5.02382 -11.42305,10.77597 -19.21484,-1.76563 -2.41196,-2.57983 -5.59849,-4.73516 -9.52149,-6.75 -7.84599,-4.02967 -18.77873,-7.45353 -32.30078,-10.33008 -27.0441,-5.75308 -64.56338,-9.03713 -102.35156,-9.03711 -37.78818,-2e-5 -75.307461,3.28403 -102.351565,9.03711 -13.522052,2.87655 -24.454794,6.30041 -32.300781,10.33008 -3.9229944,2.01484 -7.2947863,3.55978 -9.5214846,6.75 -5.5890082,8.00744 -8.7061214,15.18161 -7.6621094,28.27539 v 0.002 c 3.22514365,40.35712 6.3264493,65.00677 12.84375,82.77148 6.517301,17.76471 16.876633,28.26255 32.519531,38.56641 25.098308,16.53204 64.917749,25.73522 106.431639,26.07617 0.0273,2.2e-4 0.0547,2.2e-4 0.082,0 41.51389,-0.34095 81.33334,-9.54413 106.43164,-26.07617 15.6429,-10.30386 26.00223,-20.8017 32.51953,-38.56641 12.16271,-33.15278 5.0442,-55.61042 14.1543,-56.2207 1.22912,-0.0824 2.08455,-0.46012 2.76563,-0.82227 1.36215,-0.72429 2.22161,-1.52608 3.2207,-2.47656 1.99819,-1.90096 4.3069,-4.50218 7.46289,-7.91797 23.08844,-24.98901 38.35171,-32.18257 87.01563,-40.93555 12.18967,-2.1925 24.02061,-4.49144 28,-5.5957 15.42115,-4.27928 24.77397,-7.13549 31.40429,-10.28906 6.63032,-3.15357 10.63049,-7.12344 13.45703,-11.91406 1.09194,-1.85068 1.95544,-3.26517 2.63282,-4.83204 0.33869,-0.78343 0.6663,-1.61664 0.7832,-2.82422 0.1169,-1.20758 -0.16467,-3.013867 -1.17773,-4.369136 -2.02612,-2.710537 -4.27434,-2.658656 -6.01368,-2.820312 -1.73933,-0.161656 -3.63325,-0.150641 -6.10547,-0.150391 z"
       sodipodi:nodetypes="cssssscsscccssscsssssssssssssscc" />
    <rect
       style="fill:none;stroke-width:1.01509;stroke-linecap:square;-inkscape-stroke:none"
       id="background"
       width="477.19562"
       height="306.1734"
       x="4.9999999e-06"
       y="2.0092773e-06" />
    <ellipse
       style="fill:#ce3112;fill-opacity:1;stroke-width:1.07742;stroke-linecap:square;-inkscape-stroke:none"
       id="basin-inside"
       cx="148.27344"
       cy="144.84349"
       rx="143.27299"
       ry="30.477417" />
    <g
       id="right-leg-down"
       transform="rotate(30,219.91016,144.84428)">
      <path
         style="fill:#ffffff;fill-opacity:1;stroke-width:1.07742;stroke-linecap:square;-inkscape-stroke:none"
         sodipodi:type="inkscape:offset"
         inkscape:radius="5"
         inkscape:original="M 301.72656 239.00586 L 301.72656 299.96094 A 143.27344 30.477417 0 0 0 445 269.48242 A 143.27344 30.477417 0 0 0 301.72656 239.00586 z "
         xlink:href="#right-leg-down-7"
         id="right-leg-up-b-3"
         inkscape:href="#right-leg-down-7"
         d="m 301.72656,234.00586 a 5.0005,5.0005 0 0 0 -5,5 v 60.95508 a 5.0005,5.0005 0 0 0 5,5 c 37.78822,0 75.30747,-3.28403 102.35156,-9.03711 13.52205,-2.87654 24.4548,-6.30042 32.30079,-10.33008 3.92299,-2.01483 7.10953,-4.17017 9.52148,-6.75 2.41195,-2.57983 4.10021,-5.82812 4.09961,-9.36133 -4.7e-4,-3.53307 -1.68925,-6.78187 -4.10156,-9.36133 -2.41232,-2.57946 -5.59829,-4.73533 -9.52149,-6.75 -7.84639,-4.02932 -18.78083,-7.45375 -32.30273,-10.33007 -27.04381,-5.75266 -64.56098,-9.03516 -102.34766,-9.03516 z"
         transform="rotate(-30,64.056956,493.51126)" />
      <path
         id="right-leg-up-f-3"
         style="fill:#065535;fill-opacity:1;stroke-width:1.07742;stroke-linecap:square;-inkscape-stroke:none"
         d="m 142.63217,154.26832 30.47754,52.78864 a 30.477417,143.27344 60 0 0 108.83918,-98.03189 30.477417,143.27344 60 0 0 -139.31672,45.24325 z" />
    </g>
    <g
       id="left-leg-down"
       transform="rotate(-30,76.63672,144.84428)">
      <path
         style="fill:#ffffff;fill-opacity:1;stroke-width:1.07742;stroke-linecap:square"
         sodipodi:type="inkscape:offset"
         inkscape:radius="5"
         inkscape:original="M 301.72656 239.00586 C 222.59884 239.00586 158.45315 252.65021 158.45312 269.48242 C 158.45311 286.31463 222.59882 299.96094 301.72656 299.96094 L 301.72656 239.00586 z "
         xlink:href="#left-leg-down-3"
         id="left-leg-up-b-6"
         inkscape:href="#left-leg-down-3"
         d="m 301.72656,234.00586 c -39.85125,0 -75.91597,3.41236 -102.34961,9.03516 -13.21682,2.8114 -24.00885,6.13662 -31.91211,10.11132 -3.95162,1.98736 -7.20742,4.12432 -9.70507,6.72071 -2.49766,2.59639 -4.30664,5.91748 -4.30665,9.60937 0,3.6919 1.80902,7.01294 4.30665,9.60938 2.49762,2.59643 5.75346,4.73325 9.70507,6.7207 7.90324,3.9749 18.69528,7.29968 31.91211,10.11133 26.43366,5.6233 62.49831,9.03711 102.34961,9.03711 a 5.0005,5.0005 0 0 0 5,-5 v -60.95508 a 5.0005,5.0005 0 0 0 -5,-5 z"
         transform="rotate(30,385.94304,-79.18358)" />
      <path
         id="left-leg-up-f-1"
         style="fill:#065535;fill-opacity:1;stroke-width:1.07742;stroke-linecap:square"
         d="M 153.91471,154.26832 C 85.388093,114.70446 23.014121,94.447967 14.59799,109.02507 c -8.4161135,14.57712 40.312546,58.46803 108.83918,98.0319 z" />
    </g>
    <g
       id="frog-down"
       inkscape:label="frog-down"
       transform="translate(0,97.900004)">
      <path
         id="frog-up-b"
         style="fill:#ffffff"
         d="m 103.45899,0.04799 c -11.00491,-0.59274 -21.28922,4.343 -27.4668,12.69336 -6.17758,8.35036 -7.9708,20.2819 -2.54687,32.24414 1.9191,4.23245 2.37608,6.04774 2.29687,7 -0.0792,0.95225 -0.80785,2.60083 -3.39062,6.38086 -5.14557,7.5308 -7.14238,15.67116 -4.90235,23.23828 2.24004,7.56712 8.20375,13.90633 16.89453,19.39258 2.39106,1.5094 2.62443,2.17403 2.42188,1.59375 -0.20255,-0.58028 0.0376,-0.079 -0.90625,2.44922 -0.006,0.0156 -0.0118,0.0312 -0.0176,0.0469 l -7.62305,21.07227 0.0625,-0.16602 c -6.78667,16.86215 0.54926,33.53009 8.34571,47.2168 1.38856,2.43762 3.5076,3.66911 5.64062,4.34961 2.13302,0.68049 4.46178,0.83406 56.00586,0.83403 51.54409,-2e-5 53.87284,-0.15359 56.00586,-0.83403 2.13302,-0.6805 4.25207,-1.91199 5.64063,-4.34961 7.79645,-13.68671 15.13238,-30.35465 8.3457,-47.2168 l 0.0625,0.16602 -7.62305,-21.07227 c -0.006,-0.0157 -0.0117,-0.0313 -0.0176,-0.0469 -0.94382,-2.52822 -0.70369,-3.0295 -0.90625,-2.44922 -0.20255,0.58028 0.0308,-0.0844 2.42188,-1.59375 8.69078,-5.48625 14.6545,-11.82546 16.89453,-19.39258 2.24003,-7.56712 0.24323,-15.70748 -4.90234,-23.23828 -2.58278,-3.78002 -3.31143,-5.4286 -3.39063,-6.38086 -0.0792,-0.95226 0.37779,-2.76754 2.29688,-7 5.42393,-11.96224 3.6307,-23.89378 -2.54688,-32.24414 -6.17758,-8.35036 -16.46189,-13.2861 -27.46679,-12.69336 -7.3365,0.39515 -14.96082,3.29859 -21.69922,9.06641 l -2.86133,2.44921 -20.25391,0.16016 -20.2539,-0.16016 -2.86133,-2.44921 h -0.002 C 118.41806,3.3473 110.79495,0.44311 103.45891,0.04799 Z"
         sodipodi:nodetypes="csssssssccccsscssccccscsssssssccccccc" />
      <path
         id="frog-up-f"
         style="fill:#065535;fill-opacity:1"
         d="M 103.18946,5.04018 C 84.50399,4.03375 68.46225,21.88594 78,42.92104 c 3.95919,8.73176 3.81602,10.45677 -1.51953,18.26562 -9.17403,13.42666 -5.63752,25.37389 10.53321,35.58203 5.17264,3.26534 5.58046,4.52507 3.52929,10.01953 l -7.62304,21.07227 c -5.8817,14.61364 0.45674,29.54362 8.05078,42.875 2.15888,3.78992 12.61167,4.00507 8.52344,-6.49219 -4.08824,-10.49727 -1.86174,-40.72148 34.87304,-53.04687 l 7.90039,-2.65039 -9.55859,-1.72266 C 108.79607,102.51776 85.17215,90.22809 79.41797,79.10072 77.08516,74.58956 78.1373,74.11166 88.83399,74.82338 97.53192,75.40211 100.2531,75.10248 116,71.83315 c 12.64635,-2.62559 22.73026,-3.99599 32.27344,-4.24219 9.54318,0.2462 19.62711,1.6166 32.27344,4.24219 15.74693,3.26933 18.46809,3.56896 27.16602,2.99023 10.69669,-0.71172 11.74882,-0.23382 9.41601,4.27734 -5.75418,11.12737 -29.37809,23.41704 -53.29101,27.72266 l -9.5586,1.72266 7.90039,2.65039 c 36.73478,12.32539 38.96129,42.5496 34.87305,53.04687 -4.08823,10.49726 6.36456,10.28211 8.52344,6.49219 7.59404,-13.33138 13.93248,-28.26136 8.05078,-42.875 l -7.62305,-21.07227 c -2.05117,-5.49446 -1.64334,-6.75419 3.5293,-10.01953 16.17073,-10.20814 19.70723,-22.15537 10.5332,-35.58203 -5.33555,-7.80885 -5.4787,-9.53386 -1.51953,-18.26562 9.53776,-21.0351 -6.50398,-38.88729 -25.18945,-37.88086 -6.22849,0.33547 -12.7505,2.76612 -18.7168,7.87304 l -4.25,3.63672 -22.11719,0.17383 -22.11718,-0.17383 -4.25,-3.63672 C 115.93994,7.8063 109.41795,5.37565 103.18946,5.04018 Z m -3.30274,6.4707 C 109.23786,11.36313 118,18.21403 118,28.7433 118,43.23611 103.63911,52.41076 90.97071,46.01088 79.6616,40.29769 77.87183,24.84867 87.53711,16.36244 91.26322,13.09087 95.6362,11.57808 99.88672,11.51088 Z m 96.77344,0 c 4.25052,0.0672 8.6235,1.57999 12.34961,4.85156 9.66528,8.48623 7.87552,23.93525 -3.43359,29.64844 -12.6684,6.39988 -27.0293,-2.77477 -27.0293,-17.26758 0,-10.52927 8.76214,-17.38017 18.11328,-17.23242 z M 141.35938,47.2726 c 0.77767,-0.005 1.54111,0.74173 1.80664,1.7832 0.30108,1.18234 -0.14482,2.31635 -0.99609,2.5332 -0.85146,0.2172 -1.78627,-0.56544 -2.08789,-1.74804 -0.30108,-1.18234 0.14482,-2.31636 0.99609,-2.5332 0.067,-0.0172 0.13553,-0.0283 0.20508,-0.0332 0.0251,-0.002 0.0511,-0.002 0.0762,-0.002 z m 13.75586,0 c 0.0501,-0.003 0.1002,-0.002 0.15039,0.002 0.0695,0.005 0.13806,0.016 0.20508,0.0332 0.85127,0.21684 1.29717,1.35086 0.99609,2.5332 -0.30162,1.1826 -1.23643,1.96525 -2.08789,1.74804 -0.85127,-0.21684 -1.29717,-1.35086 -0.99609,-2.5332 0.25697,-1.00788 0.98116,-1.74164 1.73242,-1.7832 z" />
      <path
         style="fill:#065535;fill-opacity:1;stroke-width:1.0509"
         d="m 102.87231,154.30542 c -0.68615,-0.1359 -0.42136,15.09443 2.402,17.43508 2.28713,1.89609 23.05451,3.27136 42.99913,3.58132 19.94462,-0.30996 40.71174,-1.68523 42.99887,-3.58132 2.82336,-2.34065 3.08815,-17.57098 2.402,-17.43508 -0.88355,0.17499 -3.77432,1.45026 -7.90394,4.02922 -13.16433,8.22116 -22.21944,9.97002 -37.49693,10.19977 -15.27749,-0.22975 -24.3326,-1.97861 -37.49693,-10.19977 -4.12962,-2.57896 -7.02065,-3.85423 -7.9042,-4.02922 z"
         id="stomach-up"
         sodipodi:nodetypes="sscssscss" />
      <path
         style="fill:#000000;fill-opacity:1"
         d="m 196.55274,17.73549 c -2.5055,0.0166 -7.32627,1.76736 -9.62891,4.25195 -4.76832,5.1451 -1.99493,15.79683 4.89258,18.79102 11.07278,4.81365 21.9042,-5.03775 17.69922,-16.09766 -0.99961,-3.27848 -1.12605,-2.62011 -3.39063,-0.49414 -4.79892,4.50835 -12.66161,0.49478 -8.60546,-4.39258 1.20727,-1.45467 0.5365,-2.06856 -0.9668,-2.05859 z"
         id="right-eye" />
      <path
         style="fill:#000000;fill-opacity:1"
         d="m 98.11599,17.73549 c 1.5033,-0.01 2.17407,0.60392 0.9668,2.05859 -4.05615,4.88736 3.80655,8.90093 8.60547,4.39258 2.26458,-2.12597 2.39101,-2.78434 3.39062,0.49414 4.20498,11.05991 -6.62643,20.91131 -17.69921,16.09766 -6.88751,-2.99419 -9.6609,-13.64592 -4.89258,-18.79102 2.30264,-2.48459 7.1234,-4.23535 9.6289,-4.25195 z"
         id="left-eye" />
    </g>
    <g
       id="sauce-pan">
      <path
         id="basin-inside-legs"
         style="fill:#ffffff;fill-opacity:1;stroke-width:1.07742;stroke-linecap:square;-inkscape-stroke:none"
         d="M 290.26172,148.79447 A 143.27299,30.477417 0 0 1 148.27344,175.32182 143.27299,30.477417 0 0 1 6.32618,148.8433 a 143.27299,30.477417 0 0 0 -1.32618,4 143.27299,30.477417 0 0 0 143.27344,30.47852 143.27299,30.477417 0 0 0 143.27344,-30.47852 143.27299,30.477417 0 0 0 -1.28516,-4.04883 z" />
      <path
         id="pan-handle"
         style="fill:#ce3112;fill-opacity:1"
         d="m 464.86524,100.36283 c -36.47561,0.005 -79.82666,10.43671 -123.81836,29.79493 -8.8,3.87236 -21.175,9.14651 -27.5,11.7207 -6.325,2.57419 -11.79759,4.97379 -12.16016,5.33203 -0.36257,0.35823 -0.98185,9.31289 -1.37695,19.90039 -0.85428,22.89211 -1.54035,22.36542 11.1875,8.58984 23.55361,-25.49248 40.81083,-33.65287 89.80273,-42.46484 12.12622,-2.18109 24.52188,-4.65277 27.54688,-5.49219 30.7236,-8.52562 36.89905,-11.46238 41.89258,-19.92578 4.34834,-7.36984 4.28547,-7.45608 -5.57422,-7.45508 z m -6.80859,5.83985 c 0.77405,-0.007 1.44573,0.01 1.99023,0.0547 2.9275,0.24109 -0.21226,1.93786 -6.88867,3.72461 -10.52146,2.81571 -26.38737,2.83013 -21.83985,0.0195 2.29577,-1.41886 19.2558,-3.73322 26.73829,-3.79882 z" />
      <path
         style="fill:#ffffff;fill-opacity:1"
         d="m 0.74415,154.86088 0.67773,8.5 c 6.43432,80.51444 12.66361,97.4933 43.12891,117.56055 23.74594,15.64126 62.94053,24.91701 103.72265,25.25195 40.78212,-0.33494 79.97672,-9.61069 103.72266,-25.25195 30.4653,-20.06725 36.6946,-37.04611 43.1289,-117.56055 l 0.67774,-8.5 -2.37695,2.16211 c -7.76879,7.06009 -62.32618,19.81836 -62.32618,19.81836 l -47.35937,3.92383 c 0,0 -18.73311,0.80487 -35.4668,0.99414 -16.73369,-0.18927 -35.46679,-0.99414 -35.46679,-0.99414 l -47.35938,-3.92383 c 0,0 -54.55738,-12.75827 -62.32617,-19.81836 z"
         id="basin-outside-b-body"
         sodipodi:nodetypes="ccscscccccccccc" />
      <path
         style="fill:#ce3112;fill-opacity:1"
         d="m 0.74415,154.86088 0.67773,8.5 c 6.43432,80.51444 12.66361,97.4933 43.12891,117.56055 23.74594,15.64126 62.94053,24.91701 103.72265,25.25195 40.78212,-0.33494 79.97672,-9.61069 103.72266,-25.25195 30.4653,-20.06725 36.6946,-37.04611 43.1289,-117.56055 l 0.67774,-8.5 -2.37695,2.16211 c -7.76879,7.06009 -30.95792,14.43302 -62.32618,19.81836 -15.52603,2.66552 -18.55273,3.97402 -18.55273,8.01953 0,3.93503 3.06795,5.58883 9.86719,5.32031 6.88695,-0.27198 8.70736,0.80243 9.68945,5.71289 1.47648,7.38239 -8.84608,11.47617 -13.87305,5.50196 -1.37225,-1.63083 -11.33159,-15.82322 -12.65429,-9.53125 -0.8227,7.4603 6.77805,22.39426 3.7207,25.24804 -6.55799,6.12132 -16.24428,1.0087 -13.47656,-7.11328 1.5566,-4.56787 7.804,-25.21311 -1.73633,-18.13476 -9.54034,7.07835 -17.80472,21.4062 -23.69336,11.29882 -5.88864,-10.10739 4.25,-12.98242 12.49023,-12.22851 7.15635,0.65474 7.04013,-10.09539 0.85938,-10.16992 -6.18075,-0.0745 -18.73311,0.80487 -35.4668,0.99414 -16.73369,-0.18927 -29.28604,-1.06864 -35.46679,-0.99414 -6.18075,0.0745 -6.29698,10.82466 0.85937,10.16992 8.24023,-0.75391 18.37888,2.12112 12.49024,12.22851 -5.88865,10.10738 -14.15302,-4.22047 -23.69336,-11.29882 -9.54033,-7.07835 -3.29293,13.56689 -1.73633,18.13476 2.76772,8.12198 -6.91856,13.2346 -13.47657,7.11328 -3.05735,-2.85378 4.54341,-17.78774 3.72071,-25.24804 -1.3227,-6.29197 -11.28205,7.90042 -12.6543,9.53125 -5.02697,5.97421 -15.34953,1.88043 -13.87305,-5.50196 0.98209,-4.91046 2.80251,-5.98487 9.68946,-5.71289 6.79924,0.26852 9.86719,-1.38528 9.86718,-5.32031 0,-4.04551 -3.0267,-5.35401 -18.55273,-8.01953 C 34.07901,171.45601 10.88989,164.08308 3.1211,157.02299 Z"
         id="basin-outside-f" />
    </g>
  </g>
</svg>
